<svg xmlns="http://www.w3.org/2000/svg" viewBox="455 97 1140 1556">
  <path fill="#C89C36" d="M1000.61 104.481C1131.66 101.427 1242.45 132.135 1349.63 209.879C1473.08 301.013 1555.96 436.832 1580.56 588.288C1585.47 619.275 1590.13 667.31 1587.55 699.478C1568.35 939.42 1421.51 1167.63 1280.59 1355.75C1265.95 1375.29 1245.3 1398.09 1229.69 1417.21C1222.03 1425.59 1215.54 1436.43 1207.88 1444.66C1188.52 1463.59 1172.75 1487.32 1154.42 1506.79C1130.71 1531.97 1107.79 1557.21 1085.5 1583.72C1071.2 1600.73 1050.5 1616.81 1037.95 1634.93C1036.04 1636.75 1034.49 1638.22 1032.77 1640.25L1031.63 1641.61C1028.61 1645.18 1027.11 1646.77 1022.29 1647.19C1015.31 1641.07 1009.21 1633.15 1002.95 1626.28C989.118 1611.1 975.451 1595.95 961.989 1580.45C952.99 1570.09 942.771 1560.56 933.335 1550.57C923.928 1540.61 915.178 1530.06 906.038 1519.86C733.983 1327.81 538.618 1064.58 477.58 810.834C470.39 780.94 466.395 750.574 463.542 720.022C462.667 710.649 461.101 701.336 460.515 691.934C459.248 671.607 461.266 652.738 463.141 632.631C463.855 624.974 464.013 617.265 464.965 609.633C478.808 498.727 528.459 382.958 603.121 299.215C623.738 276.09 646.031 253.09 669.617 232.966C739.008 173.759 827.786 131.388 917.293 113.94C944.706 108.596 972.75 106.093 1000.61 104.481ZM1027.94 1582.51C1033.55 1576.08 1039.95 1566.83 1046.31 1562.07L1046.95 1561.26C1060.07 1544.73 1081.5 1524.18 1096.29 1507.78C1128.73 1471.18 1160.63 1434.09 1191.97 1396.55C1226.87 1354.56 1260.61 1311.64 1293.18 1267.82C1321.41 1228.53 1348.42 1188.37 1374.17 1147.41C1399.13 1108.84 1422.11 1069.02 1443.02 1028.12C1491.39 932.432 1533.08 823.418 1543.85 716.381C1545.81 696.93 1545.37 650.098 1543.78 631.093C1523.24 385.183 1319.95 171.114 1072.47 148.412C1046.43 146.024 1008.34 147.719 981.486 148.434C974.745 149.681 968.241 150.826 961.407 151.527C809.169 167.148 681.464 255.097 596.305 379.083C517.55 493.814 487.408 635.052 512.466 771.937C549.293 967.624 684.766 1178.95 806.373 1333.84C837.288 1373.02 869.159 1411.44 901.957 1449.06C939.094 1492.42 977.715 1537.75 1018.14 1578.3C1020.55 1580.73 1024.65 1581.61 1027.94 1582.51Z"/>
  <path fill="#C89C36" fill-opacity="0.98823529" d="M1007.39 380.809C1163.91 371.448 1298.45 490.61 1308.07 647.12C1317.68 803.63 1198.74 938.363 1042.25 948.232C885.392 958.124 750.281 838.848 740.644 681.978C731.007 525.108 850.502 390.191 1007.39 380.809ZM1052.1 903.592C1184.14 888.32 1278.91 769.069 1263.98 636.992C1249.05 504.915 1130.04 409.837 997.924 424.432C865.33 439.08 769.83 558.614 784.818 691.17C799.806 823.727 919.584 918.92 1052.1 903.592Z"/>
</svg>
