<?xml version="1.0" encoding="utf-8" ?><svg xmlns="http://www.w3.org/2000/svg" xmlns:xlink="http://www.w3.org/1999/xlink" width="2048" height="2048" viewBox="0 0 2048 2048"><path fill="#C89C36" d="M1000.61 104.481C1131.66 101.427 1242.45 132.135 1349.63 209.879C1473.08 301.013 1555.96 436.832 1580.56 588.288C1585.47 619.275 1590.13 667.31 1587.55 699.478C1568.35 939.42 1421.51 1167.63 1280.59 1355.75C1265.95 1375.29 1245.3 1398.09 1229.69 1417.21C1222.03 1425.59 1215.54 1436.43 1207.88 1444.66C1188.52 1463.59 1172.75 1487.32 1154.42 1506.79C1130.71 1531.97 1107.79 1557.21 1085.5 1583.72C1071.2 1600.73 1050.5 1616.81 1037.95 1634.93C1036.04 1636.75 1034.49 1638.22 1032.77 1640.25L1031.63 1641.61C1028.61 1645.18 1027.11 1646.77 1022.29 1647.19C1015.31 1641.07 1009.21 1633.15 1002.95 1626.28C989.118 1611.1 975.451 1595.95 961.989 1580.45C952.99 1570.09 942.771 1560.56 933.335 1550.57C923.928 1540.61 915.178 1530.06 906.038 1519.86C733.983 1327.81 538.618 1064.58 477.58 810.834C470.39 780.94 466.395 750.574 463.542 720.022C462.667 710.649 461.101 701.336 460.515 691.934C459.248 671.607 461.266 652.738 463.141 632.631C463.855 624.974 464.013 617.265 464.965 609.633C478.808 498.727 528.459 382.958 603.121 299.215C623.738 276.09 646.031 253.09 669.617 232.966C739.008 173.759 827.786 131.388 917.293 113.94C944.706 108.596 972.75 106.093 1000.61 104.481ZM1027.94 1582.51C1033.55 1576.08 1039.95 1566.83 1046.31 1562.07L1046.95 1561.26C1060.07 1544.73 1081.5 1524.18 1096.29 1507.78C1128.73 1471.18 1160.63 1434.09 1191.97 1396.55C1226.87 1354.56 1260.61 1311.64 1293.18 1267.82C1321.41 1228.53 1348.42 1188.37 1374.17 1147.41C1399.13 1108.84 1422.11 1069.02 1443.02 1028.12C1491.39 932.432 1533.08 823.418 1543.85 716.381C1545.81 696.93 1545.37 650.098 1543.78 631.093C1523.24 385.183 1319.95 171.114 1072.47 148.412C1046.43 146.024 1008.34 147.719 981.486 148.434C974.745 149.681 968.241 150.826 961.407 151.527C809.169 167.148 681.464 255.097 596.305 379.083C517.55 493.814 487.408 635.052 512.466 771.937C549.293 967.624 684.766 1178.95 806.373 1333.84C837.288 1373.02 869.159 1411.44 901.957 1449.06C939.094 1492.42 977.715 1537.75 1018.14 1578.3C1020.55 1580.73 1024.65 1581.61 1027.94 1582.51Z"/><path fill="#C89C36" fill-opacity="0.98823529" d="M1007.39 380.809C1163.91 371.448 1298.45 490.61 1308.07 647.12C1317.68 803.63 1198.74 938.363 1042.25 948.232C885.392 958.124 750.281 838.848 740.644 681.978C731.007 525.108 850.502 390.191 1007.39 380.809ZM1052.1 903.592C1184.14 888.32 1278.91 769.069 1263.98 636.992C1249.05 504.915 1130.04 409.837 997.924 424.432C865.33 439.08 769.83 558.614 784.818 691.17C799.806 823.727 919.584 918.92 1052.1 903.592Z"/><path fill="#C89C36" d="M1517.99 1793.71C1558.12 1782.55 1599.7 1806.05 1610.82 1846.19C1621.95 1886.33 1598.4 1927.88 1558.25 1938.96C1545.17 1942.57 1531.37 1942.59 1518.29 1939C1497.1 1933.2 1479.49 1918.43 1470.09 1898.57C1460.69 1878.72 1460.41 1855.75 1469.35 1835.67C1478.49 1815.13 1496.33 1799.74 1517.99 1793.71ZM1549.32 1926.89C1582.76 1920.64 1604.79 1888.44 1598.5 1855C1592.22 1821.56 1560 1799.57 1526.57 1805.89C1493.18 1812.2 1471.22 1844.36 1477.5 1877.75C1483.78 1911.14 1515.92 1933.14 1549.32 1926.89Z"/><path fill="#C89C36" d="M903.498 1793.72C943.769 1782.75 985.28 1806.63 996.034 1846.96C1006.79 1887.29 982.681 1928.67 942.294 1939.21C902.214 1949.67 861.215 1925.78 850.543 1885.76C839.87 1845.74 863.533 1804.61 903.498 1793.72ZM938.02 1926C970.759 1918.11 991.038 1885.32 983.488 1852.5C975.937 1819.68 943.372 1799.05 910.472 1806.25C888.876 1810.98 871.485 1826.95 864.931 1848.06C858.376 1869.17 863.669 1892.18 878.79 1908.3C893.911 1924.43 916.53 1931.19 938.02 1926Z"/><path fill="#C89C36" d="M1226.98 1792.36C1230.17 1791.79 1236.29 1790.91 1238.19 1794.54C1261.13 1838.45 1277.38 1885.8 1300.2 1929.71C1302.54 1934.22 1301.93 1938.12 1297.8 1940.78C1282.99 1940.7 1279.72 1911.04 1267.5 1899.92L1266.31 1900.31C1254.44 1904.01 1247.66 1902.61 1235.57 1901.59C1226.72 1901.3 1217.84 1901.68 1208.99 1901.77C1203.5 1901.83 1196.05 1900.04 1191.99 1903.6C1181.47 1912.83 1177.99 1935.8 1164.65 1941.17C1153.43 1939.28 1163.02 1926.96 1165.01 1922.49C1169.16 1913.13 1173.89 1903.96 1178 1894.63C1191.94 1862.95 1204.52 1830.68 1219.89 1799.61C1221.69 1795.98 1223.7 1794.61 1226.98 1792.36ZM1230.08 1888.83C1239.95 1888.41 1274.37 1892.64 1261.47 1877.59C1257.2 1872.61 1256.48 1863.98 1253.07 1859C1251.24 1854.37 1251.89 1853.43 1249.39 1848.73C1247.24 1844.68 1246.29 1839.84 1243.01 1835.57C1237.03 1827.8 1241.36 1814.59 1227.15 1813.51C1225.14 1818.38 1225.03 1820.46 1223.74 1824.99C1222.38 1829.76 1215.98 1836.39 1216.18 1841.97C1215.88 1845.09 1210.69 1851.31 1209.74 1854.77C1208.64 1860.25 1205.24 1863.53 1204.23 1868.49C1203.86 1870.32 1199.22 1879.06 1197.98 1880.53C1192.44 1887.1 1202.63 1892.1 1208.51 1889.1C1212.11 1887.27 1225.45 1888.71 1230.08 1888.83Z"/><path fill="#C89C36" d="M414.67 1906.34C413.567 1905.59 407.747 1901.64 406.828 1901.72C382.714 1904.1 353.668 1899.23 330.23 1903.1C322.667 1904.35 320.331 1939.15 303.187 1940.98C298.684 1938.52 300.227 1932.7 301.853 1928.6C308.064 1912.97 316.878 1897.89 323.391 1882.42C334.76 1855.42 345.866 1828.39 358.849 1802.1C363.654 1792.28 367.796 1788.69 378.118 1793.95C377.653 1797.53 378.035 1802.63 377.138 1805.55C376.877 1806.4 372.849 1804.44 370.789 1806.16C370.475 1807.09 370.977 1807.61 371.464 1808.37C369.287 1809.5 369.467 1809.41 369.759 1811.75C362.487 1829.28 353.171 1847.14 345.668 1864.74C340.55 1876.75 326.293 1891.92 353.001 1888.1C363.586 1886 419.686 1896.33 401.397 1875.68C395.972 1869.18 393.315 1856.85 389.308 1849.7C386.235 1844.21 380.826 1827.79 378.215 1823.29C378.578 1817.48 377.508 1811.19 379.623 1806.67C380.402 1806.48 381.174 1806.26 381.975 1806.15L383.927 1805.81C384.001 1806.07 384.075 1806.32 384.149 1806.58L431.922 1914.41C435.08 1921.49 445.952 1935.04 440.727 1941.23C426.612 1943.36 417.723 1916.82 414.67 1906.34Z"/><path fill="#C89C36" d="M1842.54 1791.46C1852.95 1790.53 1866.96 1792.06 1875.53 1797.69C1882.47 1802.26 1888.91 1802.3 1891.51 1810.53C1890.59 1814.23 1891.51 1812.72 1888.7 1815.23C1880.04 1817.83 1875.69 1811.32 1867.5 1807.93C1847.55 1797.92 1806.42 1804.53 1808.8 1833.26C1812.01 1871.94 1897.3 1851.4 1896.58 1900.19C1896.01 1938.8 1866.67 1941.07 1836.75 1940.21C1821.27 1940.55 1794.84 1929.47 1792.04 1912.73C1793.02 1909.34 1791.99 1910.46 1794.55 1908.76C1801.32 1908.25 1812.61 1918.94 1819 1923.76C1824.52 1923.91 1828.61 1926.03 1834.46 1926.86C1844.68 1928.33 1854.15 1927.83 1864.38 1927.47C1865.09 1927.08 1865.8 1926.67 1866.5 1926.25C1872.95 1922.37 1881.88 1914.84 1882.99 1907.18C1887.56 1875.49 1837.48 1875.04 1818.82 1866.74C1811.24 1863.32 1804.78 1857.84 1800.16 1850.93L1795.83 1844.48C1795.53 1833.82 1794.28 1823.64 1798.81 1813.55C1804.84 1800.12 1817.38 1798.87 1826.93 1791.8L1842.54 1791.46Z"/><path fill="#C89C36" d="M1095.25 1791.45C1114.17 1791.76 1127.56 1796.09 1143.26 1806.98C1145.72 1808.68 1148.91 1812.88 1148.49 1815.72C1145.58 1835.71 1120.51 1804.07 1109.26 1804.67C1037.61 1792.97 1005.72 1890.16 1070.04 1923.44C1080.25 1928.72 1109.33 1930.77 1119.11 1924.32C1129.07 1922.13 1137.89 1908.82 1147.53 1911.94C1149.91 1914.67 1149.05 1913.11 1149.83 1916.95C1148.98 1920.14 1147.75 1921.08 1145.58 1923.4C1126.61 1943.63 1083.64 1945.87 1060.19 1933.86C1022.6 1914.6 1010.1 1865.91 1029.85 1829.29C1041 1808.61 1054.68 1801.05 1075.73 1792.38C1076.03 1792.17 1076.33 1791.97 1076.63 1791.76C1082.7 1791.8 1089.15 1791.56 1095.25 1791.45Z"/><path fill="#C89C36" d="M666.887 1791.04C670.656 1792.06 670.658 1792.36 672.26 1794.94C671.84 1799.11 662.283 1811.75 659.384 1816.65C644.646 1841.59 626.597 1865.71 612.155 1890.74C612.215 1900.73 615.162 1934.88 608.271 1940.38L605.648 1939.91C602.346 1937.42 601.999 1935.74 600.169 1931.84C600.298 1917.12 600.736 1899.18 599.948 1884.69C589.057 1873.69 580.409 1857.76 572.087 1844.68C571.518 1843.78 571.356 1842.86 570.327 1841.48C562.491 1831.17 548.481 1808.83 541.138 1796.96C541.237 1796.01 541.336 1795.07 541.435 1794.13C543.402 1792.43 544.914 1791.85 547.58 1791.82C561.318 1791.69 593.074 1861.56 603.653 1869.01C606.09 1870.72 609.026 1868.79 610.842 1867.07C615.173 1862.97 618.406 1856.66 621.581 1851.61C629.001 1839.81 648.855 1805.1 657.465 1796.48C660.348 1793.59 662.959 1792.02 666.887 1791.04Z"/><path fill="#C89C36" d="M753.791 1791.86C758.592 1792.21 763.686 1794.22 763.536 1800.09C762.544 1838.89 764.521 1877.68 763.199 1916.45C763.139 1918.19 763.666 1923.73 765.347 1924.98C777.115 1931.3 837.402 1923.4 843.872 1929.5C845.189 1932.86 844.252 1934.89 843.404 1938.45C837.042 1941.42 757.632 1941.14 749.024 1937.7C747.291 1931.44 747.972 1916.89 748.049 1910.05C748.472 1872.77 749.281 1835.49 747.978 1798.22C747.897 1795.92 752.074 1793.18 753.791 1791.86Z"/><path fill="#C89C36" d="M471.585 1790.63C476.07 1792.39 476.638 1793.65 479.928 1797.46C478.817 1808.86 478.934 1914.82 481.003 1921.83C481.69 1924.16 481.941 1925.12 484.213 1926.14C497.102 1931.94 553.369 1922.87 561.443 1928.88C563.657 1930.53 563.623 1931.19 563.844 1933.73C562.719 1937.04 560.658 1938 557.779 1940.1C531.642 1940.14 496.181 1941.14 469.71 1939.11C461.78 1938.5 464.013 1911.89 464.15 1904.22L465.235 1848C465.724 1829.5 467.518 1816.25 464.339 1797.99C467.237 1794.6 468.21 1793.47 471.585 1790.63Z"/><path fill="#C89C36" d="M1318.33 1803.9C1309.79 1804.62 1289.1 1806.23 1282.2 1801.81C1280.58 1798.77 1280.94 1800.41 1281.55 1796.65C1282.56 1795.41 1284.58 1792.77 1285.59 1791.74C1322 1792.06 1358.48 1792.14 1394.91 1791.79C1396.43 1791.77 1397.56 1792.36 1398.84 1793.07C1400.93 1796 1400.83 1795.76 1400.8 1799.37C1399.2 1802.01 1397.93 1803.04 1394.86 1803.71C1384.26 1806.02 1354.37 1799.39 1348.33 1809.12C1343.77 1816.48 1351.03 1915.45 1346.48 1933.87C1345.74 1936.86 1344.57 1938.82 1341.92 1940.52C1333.43 1940.98 1331.5 1934.89 1331.62 1927.54C1335.42 1926.33 1338.19 1924.19 1338.12 1920.05C1337.94 1908.87 1339.43 1803.03 1337.14 1800.85C1331.03 1800.04 1324.3 1802.21 1318.33 1803.9Z"/><path fill="#C89C36" d="M1421.34 1791.8C1424.86 1791.5 1425.07 1791.66 1428.42 1792.27C1429.2 1792.91 1431.49 1794.44 1431.43 1795.43C1429.8 1820.06 1437.22 1924.33 1430.68 1940.67C1425.25 1940.77 1423.62 1941.68 1420.32 1937.24C1417.27 1891.65 1422.59 1843.95 1418.06 1798.24C1417.93 1796.87 1420.53 1793.05 1421.34 1791.8Z"/><path fill="#C89C36" d="M161.134 1797.69C163.68 1794.32 165.405 1791.91 169.307 1790.37C170.705 1790.7 171.331 1790.65 172.439 1791.72C179.009 1798.03 176.33 1851.88 176.023 1863.37C172.722 1865.8 173.897 1895.4 171.743 1898.04C171.63 1898.05 171.518 1898.07 171.405 1898.09C171.303 1896.45 171.26 1888.1 170.694 1887.26C170.431 1887.15 170.564 1887.15 170.295 1887.27C169.911 1887.89 169.205 1923.17 169.714 1926.01C170.525 1926.99 174.985 1927.76 176.281 1927.98C176.114 1934.85 176.42 1936.02 171.011 1940.34C167.411 1941.07 169.109 1941.29 165.76 1939.55C156.465 1926.56 166.453 1825.29 161.134 1797.69Z"/><path fill="#C89C36" d="M1672.31 1813.99C1688.11 1832.17 1702.12 1854.39 1717.07 1873.42C1721.06 1878.48 1729.1 1891.36 1733.55 1894.97C1733.52 1897.16 1733.35 1902.03 1734.06 1903.92C1736.7 1910.99 1743.49 1913.95 1740.55 1921.16C1738.06 1922.13 1738.74 1921.97 1736.04 1922.39C1732.2 1918.81 1724.49 1906.72 1720.7 1901.66C1708.88 1886 1697.24 1870.21 1685.76 1854.3C1681.72 1848.79 1674.16 1839.38 1670.92 1834.17C1669.8 1831.24 1668.1 1830.1 1666.3 1827.23C1666.75 1817.7 1663.35 1814.4 1672.31 1813.99Z"/><path fill="#C89C36" d="M1644.06 1832.67C1645.9 1827.32 1646.25 1822.63 1647.74 1817.53C1647.71 1818.13 1647.66 1818.26 1647.83 1818.83L1647.97 1818.77C1650.16 1815.82 1648.18 1808.16 1649.58 1807.4C1650.78 1807.71 1649.09 1822.61 1650.54 1824.2C1651.23 1823.82 1651.27 1823.28 1651.51 1822.53L1651.62 1822.57C1652.7 1825.4 1654 1828.02 1656.19 1830.16C1660.67 1839.74 1657.7 1860.97 1657.33 1872.6C1656.21 1892.15 1658.14 1916.38 1656.19 1936.49C1655.93 1939.15 1654.39 1939.68 1652.57 1940.74C1648.69 1940.61 1648.78 1940.4 1645.63 1938.39C1641.52 1933.12 1643.62 1845.24 1644.06 1832.67Z"/><path fill="#C89C36" d="M1748.87 1793.07C1752.67 1791.31 1753.07 1790.88 1757.07 1791.22C1758.54 1792.24 1759.91 1792.83 1760 1795.02C1760.72 1811.72 1760.48 1830.15 1760.5 1846.71C1760.68 1867.96 1760.66 1889.22 1760.45 1910.48C1760.35 1918.5 1760.59 1931.18 1759.63 1938.67C1754.02 1942.93 1750.39 1939.94 1746.34 1935.21C1745.63 1925.49 1755.31 1918.09 1753.83 1911.27C1745.65 1873.47 1754.68 1830.71 1748.87 1793.07Z"/><path fill="#C89C36" fill-opacity="0.95686275" d="M195.756 1803.4C204.104 1801.79 213.391 1802.69 221.872 1802.17C243.629 1800.83 263.952 1799.66 285.698 1802.28C293.269 1803.19 303.956 1801.54 311.333 1803.27C310.863 1803.44 310.392 1803.62 309.921 1803.8C302.83 1807.33 262.118 1799.09 261.766 1809.45C261.143 1827.76 260.044 1915.62 262.824 1927.51C260.968 1926.3 258.659 1925.5 258.596 1923.01C258.008 1899.89 258.833 1876.46 257.769 1853.36C257.204 1841.1 259.567 1819.84 256.11 1808.42C252.474 1814.17 254.018 1926.62 254.029 1941.2C251.696 1938.47 249.952 1935.45 247.994 1932.42C249.26 1908.77 248.476 1883.53 248.452 1859.76C248.441 1848.15 250.249 1815.1 245.812 1805.65C237.642 1801.79 208.119 1805.75 195.756 1803.4Z"/><path fill="#C89C36" d="M195.756 1803.4C195.402 1799.76 194.86 1797.9 196.306 1794.54C199.344 1791.33 208.767 1791.38 213.237 1791.56C243.117 1792.75 272.633 1791.92 302.482 1791.48C307.829 1791.4 313.486 1792.48 314.739 1798.26C313.595 1801.27 313.697 1801.06 311.333 1803.27C303.956 1801.54 293.269 1803.19 285.698 1802.28C263.952 1799.66 243.629 1800.83 221.872 1802.17C213.391 1802.69 204.104 1801.79 195.756 1803.4Z"/><path fill="#C89C36" fill-opacity="0.98431373" d="M1318.33 1803.9C1324.3 1802.21 1331.03 1800.04 1337.14 1800.85C1339.43 1803.03 1337.94 1908.87 1338.12 1920.05C1338.19 1924.19 1335.42 1926.33 1331.62 1927.54C1332.88 1899.99 1332.29 1838.67 1331.21 1808.15C1330.58 1807.28 1329.95 1806.41 1329.32 1805.54C1325.6 1803.52 1322.63 1803.94 1318.33 1803.9Z"/><path fill="#C89C36" fill-opacity="0.96078432" d="M1748.87 1793.07C1754.68 1830.71 1745.65 1873.47 1753.83 1911.27C1755.31 1918.09 1745.63 1925.49 1746.34 1935.21C1743.01 1930.86 1739.57 1926.58 1736.04 1922.39C1738.74 1921.97 1738.06 1922.13 1740.55 1921.16C1743.49 1913.95 1736.7 1910.99 1734.06 1903.92C1733.35 1902.03 1733.52 1897.16 1733.55 1894.97C1736.9 1898.88 1739.62 1906.68 1745.76 1905.6C1749.13 1897.97 1746.7 1831.87 1747.63 1819.41C1748.11 1812.91 1746.38 1800.08 1748.87 1793.07Z"/><path fill="#C89C36" fill-opacity="0.98431373" d="M1644.06 1832.67C1643.93 1828.33 1642.99 1795 1644.51 1793.49C1653.28 1784.79 1669.06 1807.31 1672.31 1813.99C1663.35 1814.4 1666.75 1817.7 1666.3 1827.23C1664.86 1825.42 1662.71 1821.4 1660.45 1821.03C1659.68 1820.9 1658.89 1821.11 1658.27 1821.59C1656.37 1823.12 1656.42 1827.86 1656.19 1830.16C1654 1828.02 1652.7 1825.4 1651.62 1822.57L1651.51 1822.53C1651.27 1823.28 1651.23 1823.82 1650.54 1824.2C1649.09 1822.61 1650.78 1807.71 1649.58 1807.4C1648.18 1808.16 1650.16 1815.82 1647.97 1818.77L1647.83 1818.83C1647.66 1818.26 1647.71 1818.13 1647.74 1817.53C1646.25 1822.63 1645.9 1827.32 1644.06 1832.67Z"/><path fill="#C89C36" d="M254.029 1941.2C254.018 1926.62 252.474 1814.17 256.11 1808.42C259.567 1819.84 257.204 1841.1 257.769 1853.36C258.833 1876.46 258.008 1899.89 258.596 1923.01C258.659 1925.5 260.968 1926.3 262.824 1927.51C265.28 1934.94 262.127 1940.45 254.029 1941.2Z"/><path fill="#C89C36" fill-opacity="0.98039216" d="M176.281 1927.98C174.985 1927.76 170.525 1926.99 169.714 1926.01C169.205 1923.17 169.911 1887.89 170.295 1887.27C170.564 1887.15 170.431 1887.15 170.694 1887.26C171.26 1888.1 171.303 1896.45 171.405 1898.09C171.518 1898.07 171.63 1898.05 171.743 1898.04C173.897 1895.4 172.722 1865.8 176.023 1863.37C177.861 1877.6 175.096 1911.19 176.281 1927.98Z"/><path fill="#FEFEFB" fill-opacity="0.019607844" d="M1656.19 1830.16C1656.42 1827.86 1656.37 1823.12 1658.27 1821.59C1658.89 1821.11 1659.68 1820.9 1660.45 1821.03C1662.71 1821.4 1664.86 1825.42 1666.3 1827.23C1668.1 1830.1 1669.8 1831.24 1670.92 1834.17C1670.53 1834.3 1663.37 1837.09 1663.33 1837.23C1661.02 1844.17 1663.66 1851.05 1661.73 1858.53C1660.46 1863.49 1658.68 1867.81 1657.33 1872.6C1657.7 1860.97 1660.67 1839.74 1656.19 1830.16Z"/><path fill="#C89C36" fill-opacity="0.98039216" d="M378.118 1793.95C381.131 1799.17 379.83 1799.75 383.927 1805.81L381.975 1806.15C381.174 1806.26 380.402 1806.48 379.623 1806.67C377.508 1811.19 378.578 1817.48 378.215 1823.29C374.499 1815.39 378.277 1814.17 369.759 1811.75C369.467 1809.41 369.287 1809.5 371.464 1808.37C370.977 1807.61 370.475 1807.09 370.789 1806.16C372.849 1804.44 376.877 1806.4 377.138 1805.55C378.035 1802.63 377.653 1797.53 378.118 1793.95Z"/></svg>